<svg id="레이어_1" data-name="레이어 1" xmlns="http://www.w3.org/2000/svg" viewBox="0 0 97.53 97.53">
  <defs>
    <style>
      .cls-2 {
        fill: #ff5933;
      }
    </style>
  </defs>
  <path class="cls-2"
    d="M97.61,47.58A48.82,48.82,0,0,1,50,97.52,48.21,48.21,0,0,1,41.45,97a1.92,1.92,0,0,1-1.1-3.23l34.06-34.9a9.76,9.76,0,0,0-14-13.63L21.64,85a3.84,3.84,0,0,1-5.29.19A48.74,48.74,0,0,1,47.62,0a48.17,48.17,0,0,1,8.53.52,1.92,1.92,0,0,1,1.11,3.24L23.18,38.7A9.78,9.78,0,0,0,25,53.8a10,10,0,0,0,12.39-1.68L76,12.54a3.83,3.83,0,0,1,5.28-.18A48.52,48.52,0,0,1,97.61,47.58Z" />
</svg>